<?xml version="1.0" encoding="UTF-8" standalone="no"?>
<svg
   xmlns:dc="http://purl.org/dc/elements/1.1/"
   xmlns:cc="http://creativecommons.org/ns#"
   xmlns:rdf="http://www.w3.org/1999/02/22-rdf-syntax-ns#"
   xmlns:svg="http://www.w3.org/2000/svg"
   xmlns="http://www.w3.org/2000/svg"
   height="46.700001"
   width="31.109016"
   xml:space="preserve"
   viewBox="0 0 31.109016 46.7"
   y="0px"
   x="0px"
   id="ug-ce"
   version="1.1"><metadata
   id="metadata10"><rdf:RDF><cc:Work
       rdf:about=""><dc:format>image/svg+xml</dc:format><dc:type
         rdf:resource="http://purl.org/dc/dcmitype/StillImage" /></cc:Work></rdf:RDF></metadata><defs
   id="defs8" />
<g
   transform="translate(-0.7)"
   id="XMLID_2_">
	<path
   d="m 19.6,12.6 c 0,-2.5 -2,-4.5 -4.5,-4.5 -2.5,0 -4.5,2 -4.5,4.5 0,2.5 2,4.5 4.5,4.5 2.5,0 4.5,-2 4.5,-4.5 z m -7.5,0 c 0,-1.6 1.3,-3 3,-3 1.6,0 3,1.3 3,3 0,1.6 -1.3,3 -3,3 -1.6,0 -3,-1.4 -3,-3 z"
   class="st0"
   id="XMLID_170_" fill="#f82249"/>
	<path
   d="M 31.7,45.7 24.6,30.6 c 1.8,-1.2 3.3,-2.6 4.5,-4.4 0.1,-0.2 0.3,-0.5 0.3,-0.5 l -1.3,-0.8 c 0,0 -0.2,0.3 -0.3,0.5 -1,1.5 -2.4,2.9 -3.9,3.9 L 19.8,20.5 C 22.5,18.9 24.2,16 24.2,12.7 24.2,7.9 20.5,4 15.8,3.6 V 0.8 C 15.8,0.4 15.5,0 15,0 14.5,0 14.2,0.3 14.2,0.8 V 3.5 C 9.7,3.9 6,7.8 6,12.6 c 0,3.2 1.6,5.9 4.1,7.6 L 6.8,29.5 C 5,28.4 3.4,27 2.3,25.3 2.2,25.1 2,24.7 2,24.7 l -1.3,0.8 c 0,0 0.2,0.4 0.4,0.6 1.3,2 3.1,3.6 5.2,4.8 L 1,45.7 c -0.1,0.4 0.1,0.8 0.5,1 0.1,0 0.2,0 0.3,0 0.3,0 0.6,-0.2 0.7,-0.5 L 7.7,31.6 c 2.3,1.1 4.9,1.7 7.6,1.7 2.9,0 5.7,-0.7 8.2,-2 l 7.1,15 c 0.1,0.3 0.4,0.4 0.7,0.4 0.1,0 0.2,0 0.3,-0.1 0.2,-0.1 0.3,-0.5 0.1,-0.9 z M 7.5,12.6 C 7.5,8.4 10.9,5 15.1,5 c 4.2,0 7.6,3.4 7.6,7.6 0,4.2 -3.4,7.6 -7.6,7.6 -4.2,0 -7.6,-3.4 -7.6,-7.6 z m 7.6,19.2 c -2.5,0 -4.9,-0.6 -7,-1.6 l 3.3,-9.3 c 1.1,0.5 2.4,0.8 3.8,0.8 1.2,0 2.3,-0.2 3.4,-0.6 l 4.2,8.9 c -2.4,1.1 -5,1.8 -7.7,1.8 z"
   class="st0"
   id="XMLID_173_" fill="#f82249" />
</g>
</svg>
