<?xml version="1.0" encoding="UTF-8" standalone="no"?>
<svg
   xmlns:dc="http://purl.org/dc/elements/1.1/"
   xmlns:cc="http://creativecommons.org/ns#"
   xmlns:rdf="http://www.w3.org/1999/02/22-rdf-syntax-ns#"
   xmlns:svg="http://www.w3.org/2000/svg"
   xmlns="http://www.w3.org/2000/svg"
   height="39.799999"
   width="45.200001"
   xml:space="preserve"
   viewBox="0 0 45.200002 39.799998"
   y="0px"
   x="0px"
   id="ug-cse"
   version="1.1"><metadata
   id="metadata10"><rdf:RDF><cc:Work
       rdf:about=""><dc:format>image/svg+xml</dc:format><dc:type
         rdf:resource="http://purl.org/dc/dcmitype/StillImage" /></cc:Work></rdf:RDF></metadata><defs
   id="defs8" />
<g
   transform="translate(-1.5,-0.9)"
   id="XMLID_2_">
	<path
   d="M 43.4,0.9 H 4.8 C 3,0.9 1.5,2.4 1.5,4.2 v 27.4 c 0,1.8 1.5,3.3 3.3,3.3 h 38.6 c 1.8,0 3.3,-1.5 3.3,-3.3 V 4.3 C 46.7,2.4 45.2,0.9 43.4,0.9 Z M 4.8,2.4 h 38.6 c 1,0 1.8,0.8 1.8,1.8 v 24 H 2.9 V 4.2 C 2.9,3.3 3.8,2.4 4.8,2.4 Z M 43.4,33.5 H 4.8 C 3.8,33.5 3,32.7 3,31.7 v -1.9 h 42.3 v 1.9 c -0.1,1 -0.9,1.8 -1.9,1.8 z"
   class="st0"
   id="XMLID_62_" fill="#f82249"/>
	<path
   d="M 33.1,38.9 H 15 c -0.5,0 -0.9,0.4 -0.9,0.9 0,0.5 0.4,0.9 0.9,0.9 h 18.1 c 0.5,0 0.9,-0.4 0.9,-0.9 0,-0.5 -0.4,-0.9 -0.9,-0.9 z"
   class="st0"
   id="XMLID_64_" fill="#f82249"/>
</g>
</svg>
