<?xml version="1.0" encoding="UTF-8" standalone="no"?>
<svg
   xmlns:dc="http://purl.org/dc/elements/1.1/"
   xmlns:cc="http://creativecommons.org/ns#"
   xmlns:rdf="http://www.w3.org/1999/02/22-rdf-syntax-ns#"
   xmlns:svg="http://www.w3.org/2000/svg"
   xmlns="http://www.w3.org/2000/svg"
   height="42.200001"
   width="42.099998"
   xml:space="preserve"
   viewBox="0 0 42.1 42.199999"
   y="0px"
   x="0px"
   id="ug-eee"
   version="1.1"><metadata
   id="metadata8"><rdf:RDF><cc:Work
       rdf:about=""><dc:format>image/svg+xml</dc:format><dc:type
         rdf:resource="http://purl.org/dc/dcmitype/StillImage" /></cc:Work></rdf:RDF></metadata><defs
   id="defs6" />
<path
   d="m 41.3,21.7 c 0.4,0 0.8,-0.3 0.8,-0.8 0,-0.5 -0.3,-0.8 -0.8,-0.8 h -6.5 v -6.3 h 6.5 c 0.4,0 0.8,-0.3 0.8,-0.8 0,-0.5 -0.3,-0.8 -0.8,-0.8 H 34.8 V 10.8 C 34.8,9 33.3,7.5 31.5,7.5 H 29.7 V 0.8 C 29.7,0.4 29.4,0 28.9,0 28.5,0 28.1,0.3 28.1,0.8 V 7.7 H 21.8 V 0.8 C 21.8,0.4 21.5,0 21,0 20.5,0 20.3,0.3 20.3,0.8 V 7.7 H 14 V 0.8 C 14,0.4 13.7,0 13.2,0 12.8,0 12.5,0.3 12.5,0.8 V 7.7 H 11.1 C 9.3,7.7 7.8,9.2 7.8,11 v 1.4 h -7 C 0.4,12.4 0,12.7 0,13.2 0,13.7 0.3,14 0.8,14 h 6.9 v 6.3 H 0.8 c -0.4,0 -0.8,0.3 -0.8,0.8 0,0.5 0.3,0.8 0.8,0.8 h 6.9 v 6.3 H 0.8 C 0.4,28.2 0,28.5 0,29 c 0,0.5 0.3,0.8 0.8,0.8 h 6.9 v 1.6 c 0,1.8 1.5,3.3 3.3,3.3 h 1.4 v 6.7 c 0,0.4 0.3,0.8 0.7,0.8 0.4,0 0.8,-0.3 0.8,-0.8 v -6.7 h 6.3 v 6.7 c 0,0.4 0.3,0.8 0.8,0.8 0.5,0 0.8,-0.3 0.8,-0.8 v -6.7 h 6.3 v 6.7 c 0,0.4 0.3,0.8 0.8,0.8 0.4,0 0.8,-0.3 0.8,-0.8 v -6.7 h 1.8 c 1.8,0 3.3,-1.5 3.3,-3.3 v -1.6 h 6.5 c 0.4,0 0.8,-0.3 0.8,-0.8 0,-0.5 -0.3,-0.8 -0.8,-0.8 h -6.5 v -6.3 h 6.5 z m -8,9.5 c 0,1 -0.8,1.8 -1.8,1.8 H 11.1 c -1,0 -1.8,-0.8 -1.8,-1.8 V 11 c 0,-1 0.8,-1.8 1.8,-1.8 h 20.3 c 1,0 1.8,0.8 1.8,1.8 v 20.2 z"
   class="st0"
   id="XMLID_72_" fill="#004480"/>
</svg>