<?xml version="1.0" encoding="UTF-8" standalone="no"?>
<svg
   xmlns:dc="http://purl.org/dc/elements/1.1/"
   xmlns:cc="http://creativecommons.org/ns#"
   xmlns:rdf="http://www.w3.org/1999/02/22-rdf-syntax-ns#"
   xmlns:svg="http://www.w3.org/2000/svg"
   xmlns="http://www.w3.org/2000/svg"
   height="49.400002"
   width="46.200001"
   xml:space="preserve"
   viewBox="0 0 46.199999 49.400002"
   y="0px"
   x="0px"
   id="ug-ece"
   version="1.1"><metadata
   id="metadata14"><rdf:RDF><cc:Work
       rdf:about=""><dc:format>image/svg+xml</dc:format><dc:type
         rdf:resource="http://purl.org/dc/dcmitype/StillImage" /></cc:Work></rdf:RDF></metadata><defs
   id="defs12" />
<g
   transform="translate(-0.1)"
   id="XMLID_2_">
	<path
   d="m 22.2,8.7 c -6.9,0.5 -12.6,6.1 -13.1,13 -0.4,5 1.9,9.8 6.1,13 1.4,1.1 1.3,3.2 1.3,3.3 v 4.9 c 0,1.9 1.3,3.5 3,4 -0.1,0.1 -0.1,0.3 -0.1,0.4 0,1.2 1,2.1 2.1,2.1 H 26 c 1.2,0 2.1,-1 2.1,-2.1 0,-0.2 -0.1,-0.4 -0.2,-0.5 1.6,-0.6 2.7,-2.1 2.7,-3.9 v -5.1 c 0,0 -0.3,-2.1 1.3,-3.5 3.7,-3 5.8,-7.1 5.8,-11.5 0,-4 -1.7,-7.8 -4.6,-10.5 -3,-2.6 -6.8,-3.9 -10.9,-3.6 z m 4.4,38.6 c 0,0.4 -0.3,0.6 -0.6,0.6 h -4.6 c -0.4,0 -0.6,-0.3 -0.6,-0.6 0,-0.1 0,-0.1 0,-0.2 h 5.8 c 0.1,0 0.2,0 0.2,0 -0.1,0.1 -0.2,0.2 -0.2,0.2 z M 26.5,45.7 H 20.7 C 19.2,45.7 18,44.5 18,43 v -4.9 c 0,0 0,-0.5 -0.1,-1.1 h 11.2 c -0.1,0.6 0,1 0,1 v 5 c 0.1,1.4 -1.2,2.7 -2.6,2.7 z M 31,33.3 c -0.8,0.7 -1.3,1.5 -1.5,2.2 0,0 0,0 0,0 h -12 C 17.2,34.8 16.8,34.1 16,33.5 12.2,30.7 10.2,26.3 10.5,21.9 11,15.7 16.1,10.6 22.3,10.2 c 0.3,0 0.7,0 1,0 3.3,0 6.3,1.2 8.7,3.4 2.6,2.4 4.1,5.9 4.1,9.4 0.1,3.9 -1.8,7.5 -5.1,10.3 z"
   class="st0"
   id="XMLID_67_" fill="#004480"/>
	<path
   d="m 23.4,7 c 0.4,0 0.8,-0.3 0.8,-0.8 V 0.8 C 24.2,0.4 23.9,0 23.4,0 22.9,0 22.6,0.3 22.6,0.8 v 5.5 c 0,0.4 0.3,0.7 0.8,0.7 z"
   class="st0"
   id="XMLID_71_" fill="#004480"/>
	<path
   d="m 35.6,12.1 c 0.2,0 0.4,-0.1 0.5,-0.2 l 3.9,-4 c 0.3,-0.3 0.3,-0.8 0,-1.1 -0.3,-0.3 -0.8,-0.3 -1.1,0 l -3.9,4 c -0.3,0.3 -0.3,0.8 0,1.1 0.2,0.1 0.4,0.2 0.6,0.2 z"
   class="st0"
   id="XMLID_72_" fill="#004480"/>
	<path
   d="M 45.5,22.2 H 40 c -0.4,0 -0.8,0.3 -0.8,0.8 0,0.5 0.3,0.8 0.8,0.8 h 5.5 c 0.4,0 0.8,-0.3 0.8,-0.8 0,-0.5 -0.4,-0.8 -0.8,-0.8 z"
   class="st0"
   id="XMLID_137_" fill="#004480"/>
	<path
   d="M 6.5,21.9 H 0.9 c -0.4,0 -0.8,0.3 -0.8,0.8 0,0.5 0.3,0.8 0.8,0.8 h 5.5 c 0.4,0 0.8,-0.3 0.8,-0.8 0,-0.5 -0.3,-0.8 -0.7,-0.8 z"
   class="st0"
   id="XMLID_138_" fill="#004480"/>
	<path
   d="m 11,11.9 c 0.1,0.1 0.3,0.2 0.5,0.2 0.2,0 0.4,-0.1 0.5,-0.2 0.3,-0.3 0.3,-0.8 0,-1.1 L 8.2,6.9 C 7.9,6.6 7.4,6.6 7.1,6.9 6.8,7.2 6.8,7.7 7.1,8 Z"
   class="st0"
   id="XMLID_139_" fill="#004480"/>
</g>
</svg>