<?xml version="1.0" encoding="UTF-8" standalone="no"?>
<svg
   xmlns:dc="http://purl.org/dc/elements/1.1/"
   xmlns:cc="http://creativecommons.org/ns#"
   xmlns:rdf="http://www.w3.org/1999/02/22-rdf-syntax-ns#"
   xmlns:svg="http://www.w3.org/2000/svg"
   xmlns="http://www.w3.org/2000/svg"
   height="52.200001"
   width="53.299999"
   xml:space="preserve"
   viewBox="0 0 53.3 52.200002"
   y="0px"
   x="0px"
   id="ug-human"
   version="1.1"><metadata
   id="metadata17"><rdf:RDF><cc:Work
       rdf:about=""><dc:format>image/svg+xml</dc:format><dc:type
         rdf:resource="http://purl.org/dc/dcmitype/StillImage" /></cc:Work></rdf:RDF></metadata><defs
   id="defs15" />
<g
   id="XMLID_2_">
	<path
   d="M 32.6,15 H 21.8 c -3.1,0 -5.6,2.5 -5.6,5.6 v 12.1 c 0,2.7 2,5 4.6,5.5 v 14 h 1.5 V 22.8 H 20.8 V 36.5 C 19,36 17.7,34.5 17.7,32.6 V 20.5 c 0,-2.2 1.8,-4.1 4.1,-4.1 h 10.8 c 2.2,0 4.1,1.8 4.1,4.1 v 12.1 c 0,1.9 -1.4,3.6 -3.2,4 V 22.8 H 32 v 29.3 h 1.5 v -14 c 2.7,-0.4 4.7,-2.7 4.7,-5.5 V 20.5 C 38.1,17.5 35.6,15 32.6,15 Z"
   class="st0"
   id="XMLID_3_" fill="#f82249"/>
	<rect
   height="10.3"
   width="1.5"
   class="st0"
   y="41.900002"
   x="26.4"
   id="XMLID_67_" fill="#f82249"/>
	<path
   d="m 25.5,12.5 h 2.3 c 2.3,0 4.2,-1.9 4.2,-4.2 V 4.2 C 32,1.9 30.1,0 27.8,0 h -2.3 c -2.3,0 -4.2,1.9 -4.2,4.2 v 4.1 c 0,2.3 1.9,4.2 4.2,4.2 z M 22.8,4.2 c 0,-1.5 1.2,-2.7 2.7,-2.7 h 2.3 c 1.5,0 2.7,1.2 2.7,2.7 v 4.1 c 0,1.5 -1.2,2.7 -2.7,2.7 H 25.5 C 24,11 22.8,9.8 22.8,8.3 Z"
   class="st0"
   id="XMLID_70_" fill="#f82249"/>
	<polygon
   points="46.8,10.9 48.3,10.9 48.3,5.5 42.9,5.5 42.9,7 45.8,7 40.3,12.2 41.4,13.3 46.8,8.1 "
   class="st0"
   id="XMLID_71_" fill="#f82249"/>
	<polygon
   points="5.9,5.5 5.9,10.9 7.4,10.9 7.4,8.1 12.9,13.3 13.9,12.2 8.5,7 11.4,7 11.4,5.5 "
   class="st0"
   id="XMLID_72_" fill="#f82249"/>
	<polygon
   points="7.4,42.2 5.9,42.2 5.9,47.7 11.4,47.7 11.4,46.2 8.5,46.2 13.9,41 12.9,39.9 7.4,45.1 "
   class="st0"
   id="XMLID_137_" fill="#f82249"/>
	<polygon
   points="40.3,41 45.8,46.2 42.9,46.2 42.9,47.7 48.3,47.7 48.3,42.2 46.8,42.2 46.8,45.1 41.4,39.9 "
   class="st0"
   id="XMLID_138_" fill="#f82249"/>
	<polygon
   points="50.4,26.1 42.9,26.1 42.9,27.6 50.5,27.6 48.4,29.7 49.5,30.7 53.3,26.9 49.5,23 48.4,24.1 "
   class="st0"
   id="XMLID_139_" fill="#f82249"/>
	<polygon
   points="2.9,26.1 4.9,24.1 3.9,23 0,26.9 3.9,30.7 4.9,29.7 2.8,27.6 10.4,27.6 10.4,26.1 "
   class="st0"
   id="XMLID_140_" fill="#f82249"/>
</g>
</svg>
