<?xml version="1.0" encoding="UTF-8" standalone="no"?>
<svg
   xmlns:dc="http://purl.org/dc/elements/1.1/"
   xmlns:cc="http://creativecommons.org/ns#"
   xmlns:rdf="http://www.w3.org/1999/02/22-rdf-syntax-ns#"
   xmlns:svg="http://www.w3.org/2000/svg"
   xmlns="http://www.w3.org/2000/svg"
   height="40.599998"
   width="40.599998"
   xml:space="preserve"
   viewBox="0 0 40.599998 40.599998"
   y="0px"
   x="0px"
   id="ug-it"
   version="1.1"><metadata
   id="metadata9"><rdf:RDF><cc:Work
       rdf:about=""><dc:format>image/svg+xml</dc:format><dc:type
         rdf:resource="http://purl.org/dc/dcmitype/StillImage" /></cc:Work></rdf:RDF></metadata><defs
   id="defs7" />
<g
   id="XMLID_2_">
	<path
   d="M 20.3,0 C 9.1,0 0,9.1 0,20.3 0,31.5 9.1,40.6 20.3,40.6 31.5,40.6 40.6,31.5 40.6,20.3 40.6,9.1 31.4,0 20.3,0 Z M 10.1,20.3 c 0,-1.8 0.2,-3.6 0.4,-5.3 2.6,-0.6 5.6,-0.9 9,-1 v 12.5 c -3.4,0 -6.4,-0.4 -9,-1 -0.3,-1.6 -0.4,-3.4 -0.4,-5.2 z M 8.9,25.2 C 4.3,24 1.5,22.1 1.5,20.3 c 0,-1.8 2.8,-3.7 7.4,-4.9 -0.2,1.6 -0.4,3.2 -0.4,4.9 0.1,1.6 0.2,3.3 0.4,4.9 z M 21,1.6 c 4,0.5 7.3,5.3 8.7,11.8 C 27,12.9 24,12.6 21,12.5 Z m -1.5,0 v 10.9 c -3,0 -6,0.3 -8.7,0.9 1.4,-6.6 4.7,-11.3 8.7,-11.8 z m 0,26.4 v 10.9 c -4,-0.5 -7.3,-5.3 -8.7,-11.8 2.7,0.5 5.7,0.8 8.7,0.9 z M 21,38.9 V 28 c 3,0 6,-0.3 8.7,-0.9 C 28.3,33.7 25,38.4 21,38.9 Z M 21,26.5 V 14 c 3.4,0 6.4,0.4 9,1 0.3,1.7 0.4,3.4 0.4,5.3 0,1.8 -0.2,3.6 -0.4,5.3 -2.6,0.5 -5.6,0.8 -9,0.9 z M 31.6,15.3 c 4.6,1.2 7.4,3.1 7.4,4.9 0,1.8 -2.8,3.7 -7.4,4.9 0.2,-1.6 0.4,-3.2 0.4,-4.9 -0.1,-1.6 -0.2,-3.3 -0.4,-4.9 z M 38.7,17 C 37.1,15.6 34.4,14.5 31.3,13.8 30.3,8.8 28.3,4.7 25.6,2.4 32.3,4.3 37.4,10 38.7,17 Z M 14.9,2.3 C 12.3,4.7 10.2,8.8 9.2,13.7 6.1,14.5 3.4,15.5 1.8,16.9 3.1,10 8.2,4.3 14.9,2.3 Z M 1.8,23.5 c 1.6,1.4 4.3,2.5 7.4,3.2 1,5 3,9.1 5.7,11.4 C 8.2,36.2 3.1,30.5 1.8,23.5 Z m 23.8,14.7 c 2.6,-2.4 4.7,-6.5 5.7,-11.4 3.1,-0.8 5.8,-1.8 7.4,-3.2 -1.3,6.9 -6.4,12.6 -13.1,14.6 z"
   class="st0"
   id="XMLID_68_" fill="#004480"/>
</g>
</svg>