<?xml version="1.0" encoding="UTF-8" standalone="no"?>
<svg
   xmlns:dc="http://purl.org/dc/elements/1.1/"
   xmlns:cc="http://creativecommons.org/ns#"
   xmlns:rdf="http://www.w3.org/1999/02/22-rdf-syntax-ns#"
   xmlns:svg="http://www.w3.org/2000/svg"
   xmlns="http://www.w3.org/2000/svg"
   height="47.5"
   width="38.429779"
   xml:space="preserve"
   viewBox="0 0 38.429778 47.499999"
   y="0px"
   x="0px"
   id="pg-mba"
   version="1.1"><metadata
   id="metadata8"><rdf:RDF><cc:Work
       rdf:about=""><dc:format>image/svg+xml</dc:format><dc:type
         rdf:resource="http://purl.org/dc/dcmitype/StillImage" /></cc:Work></rdf:RDF></metadata><defs
   id="defs6" />
<path
   d="m 36.466667,31.7 c -2.2,-4.7 -6.4,-5 -9.2,-5.1 -0.5,0 -0.9,-0.1 -1.3,-0.1 -1.6,-0.2 -2.2,-2.3 -2.3,-3 0.7,-0.7 1.4,-1.5 2,-2.5 0.1,-0.2 0.2,-0.4 0.3,-0.6 1.1,-0.3 6.1,-2.1 5.4,-9.6 -0.7,-7.4 -6.8,-10.6 -11.5,-10.8 v 0 c 0,0 0,0 0,0 -0.2,0 -0.4,0 -0.6,0 -0.2,0 -0.4,0 -0.5,0 0,0 0,0 0,0 v 0 c -4.8,0.2 -10.9000003,3.4 -11.6000003,10.7 -0.7,7.2 3.8000003,9.1 5.2000003,9.6 0.2,0.3 0.3,0.7 0.5,1 0.5,0.9 1.1,1.6 1.8,2.3 -0.2,0.8 -0.7,2.7 -2.3,2.9 -0.4,0 -0.8,0.1 -1.3,0.1 -2.8000003,0.2 -7.0000003,0.4 -9.2000003,5.1 -2.40000003,5.2 -1.80000003,12.7 -1.80000003,13 v 0.4 l 0.4,0.2 c 0.2,0.1 4.30000003,2.2 16.40000033,2.2 0.8,0 1.5,0 2.3,0 0.8,0 1.6,0 2.4,0 12.1,0 16.2,-2.1 16.4,-2.2 l 0.4,-0.2 v -0.4 c 0,-0.3 0.6,-7.7 -1.9,-13 z M 8.6666667,10.9 c 0.7,-7 6.8000003,-9.3 10.3000003,-9.4 0.1,0 0.1,0 0.2,0 0.1,0 0.2,0 0.3,0 3.5,0.1 9.6,2.4 10.3,9.4 0.4,4.6 -1.5,6.6 -3,7.5 1.1,-2.8 1.3,-5.4 1.3,-5.5 l 0.1,-0.7 -0.6,-0.1 c -0.2,0 -5,-1.2 -7.7,-7.3 l -0.8,-1.7 -0.6,1.8 c 0,0.1 -2,5.3 -7.2,7.3 l -0.4,0.2 -0.1,0.4 c 0,0.1 -0.3,2.5 0.7,5.6 -1.3,-0.9 -3.2000003,-2.9 -2.8000003,-7.5 z m 3.7000003,2.4 c 3.8,-1.6 5.9,-4.7 6.9,-6.5 2.4,4.5 5.9,6.1 7.4,6.6 -0.2,1.3 -0.7,4.2 -2.3,6.8 -1.6,2.8 -4.3,4.3 -5.2,4.7 -0.8,-0.3 -3.4,-1.5 -5,-4.3 -1.8,-3.2 -1.9,-6.2 -1.8,-7.3 z m 3.6,11.4 c 1.6,1.2 3,1.7 3.1,1.7 l 0.3,0.1 0.3,-0.1 c 0.1,0 1.4,-0.6 2.9,-1.8 0.3,1 0.9,2.3 2.1,3 l -5.7,5.6 -5.6,-5.4 c 1.5,-0.6 2.2,-2 2.6,-3.1 z m 20.9,19.5 c -1.3,0.5 -6.2,2.1 -17.6,1.9 v 0 c 0,0 0,0 -0.1,0 0,0 0,0 -0.1,0 v 0 C 7.8666667,46.3 2.8666667,44.7 1.5666667,44.2 c -0.1,-1.7 -0.3,-7.6 1.7,-11.8 1.8,-3.9 5.4,-4.1 8.0000003,-4.3 0.1,0 0.2,0 0.3,0 l 7.3,7.2 7.3,-7.3 c 0.3,0 0.7,0.1 1,0.1 2.6,0.1 6.1,0.4 8,4.3 1.9,4.1 1.8,10.1 1.7,11.8 z"
   class="st0"
   id="XMLID_207_" fill="#004480"/>
</svg>