<?xml version="1.0" encoding="UTF-8" standalone="no"?>
<svg
   xmlns:dc="http://purl.org/dc/elements/1.1/"
   xmlns:cc="http://creativecommons.org/ns#"
   xmlns:rdf="http://www.w3.org/1999/02/22-rdf-syntax-ns#"
   xmlns:svg="http://www.w3.org/2000/svg"
   xmlns="http://www.w3.org/2000/svg"
   height="46"
   width="45.204727"
   xml:space="preserve"
   viewBox="0 0 45.204728 45.999999"
   y="0px"
   x="0px"
   id="pg-mca"
   version="1.1"><metadata
   id="metadata11"><rdf:RDF><cc:Work
       rdf:about=""><dc:format>image/svg+xml</dc:format><dc:type
         rdf:resource="http://purl.org/dc/dcmitype/StillImage" /></cc:Work></rdf:RDF></metadata><defs
   id="defs9" />
<g
   transform="translate(-0.5,-0.4)"
   id="XMLID_2_">
	<path
   d="m 42.5,6.6 h -13 c -0.4,0 -0.8,0.3 -0.8,0.8 0,0.5 0.3,0.8 0.8,0.8 h 13 c 1,0 1.8,0.8 1.8,1.8 V 34 H 2 V 10 C 2,9 2.8,8.2 3.8,8.2 h 13.5 c 0.4,0 0.8,-0.3 0.8,-0.8 0,-0.5 -0.3,-0.8 -0.8,-0.8 H 3.9 C 2,6.6 0.5,8.1 0.5,9.9 v 27.4 c 0,1.8 1.5,3.3 3.3,3.3 h 38.6 c 1.8,0 3.3,-1.5 3.3,-3.3 V 9.9 C 45.8,8.1 44.3,6.6 42.5,6.6 Z m 0,32.6 H 3.9 c -1,0 -1.8,-0.8 -1.8,-1.8 v -1.9 h 42.3 v 1.9 c -0.1,0.9 -0.9,1.8 -1.9,1.8 z"
   class="st0"
   id="XMLID_196_" fill="#004480"/>
	<path
   d="M 32.2,44.6 H 14.1 c -0.5,0 -0.9,0.4 -0.9,0.9 0,0.5 0.4,0.9 0.9,0.9 h 18.1 c 0.5,0 0.9,-0.4 0.9,-0.9 0,-0.5 -0.4,-0.9 -0.9,-0.9 z"
   class="st0"
   id="XMLID_197_" fill="#004480"/>
	<path
   d="m 16.7,21.4 6.5,6.5 6.2,-6.1 3.4,0.7 L 34,18.6 26.5,7.1 c 0,0 0,0 -0.1,-0.1 L 28,0.4 H 18 l 2,6.7 z m 6.4,4.3 -4.8,-4.8 3,-12.6 h 3.8 l 2.7,12.8 z m 8.7,-5.1 -2.1,-0.4 c -0.1,0 -0.3,0 -0.4,0 l -2,-9.3 5.1,7.7 z M 26.1,1.9 25,6.6 H 21.4 L 20,1.9 Z"
   class="st0"
   id="XMLID_200_" fill="#004480"/>
</g>
</svg>