<?xml version="1.0" encoding="UTF-8" standalone="no"?>
<svg
   xmlns:dc="http://purl.org/dc/elements/1.1/"
   xmlns:cc="http://creativecommons.org/ns#"
   xmlns:rdf="http://www.w3.org/1999/02/22-rdf-syntax-ns#"
   xmlns:svg="http://www.w3.org/2000/svg"
   xmlns="http://www.w3.org/2000/svg"
   height="43.900002"
   width="45.204723"
   xml:space="preserve"
   viewBox="0 0 45.204722 43.900001"
   y="0px"
   x="0px"
   id="pg-cse"
   version="1.1"><metadata
   id="metadata13"><rdf:RDF><cc:Work
       rdf:about=""><dc:format>image/svg+xml</dc:format><dc:type
         rdf:resource="http://purl.org/dc/dcmitype/StillImage" /></cc:Work></rdf:RDF></metadata><defs
   id="defs11" />
<g
   transform="translate(-0.6,-0.7)"
   id="XMLID_199_">
	<path
   d="m 42.5,4.8 h -8 V 0.7 H 11.9 v 4.1 h -8 C 2.1,4.8 0.6,6.3 0.6,8.1 v 27.4 c 0,1.8 1.5,3.3 3.3,3.3 h 38.6 c 1.8,0 3.3,-1.5 3.3,-3.3 V 8.1 C 45.9,6.3 44.4,4.8 42.5,4.8 Z M 13.4,2.2 H 33 V 24.9 H 13.4 Z M 3.9,6.3 h 8 V 26.4 H 34.6 V 6.3 h 8 c 1,0 1.8,0.8 1.8,1.8 v 24 H 2.1 v -24 c 0,-1 0.8,-1.8 1.8,-1.8 z M 42.5,37.4 H 3.9 c -1,0 -1.8,-0.8 -1.8,-1.8 v -1.9 h 42.3 v 1.9 c 0,0.9 -0.9,1.8 -1.9,1.8 z"
   class="st0"
   id="XMLID_338_" fill="#004480"/>
	<path
   d="M 32.3,42.8 H 14.2 c -0.5,0 -0.9,0.4 -0.9,0.9 0,0.5 0.4,0.9 0.9,0.9 h 18.1 c 0.5,0 0.9,-0.4 0.9,-0.9 -0.1,-0.5 -0.5,-0.9 -0.9,-0.9 z"
   class="st0"
   id="XMLID_341_" fill="#004480"/>
	<rect
   height="1.5"
   width="13.3"
   class="st0"
   y="7.9000001"
   x="15.4"
   id="XMLID_342_" fill="#004480"/>
	<rect
   height="1.5"
   width="13.3"
   class="st0"
   y="11.9"
   x="15.4"
   id="XMLID_343_" fill="#004480"/>
	<rect
   height="1.5"
   width="6"
   class="st0"
   y="15.2"
   x="15.4"
   id="XMLID_344_" fill="#004480"/>
</g>
</svg>