<?xml version="1.0" encoding="UTF-8" standalone="no"?>
<svg
   xmlns:dc="http://purl.org/dc/elements/1.1/"
   xmlns:cc="http://creativecommons.org/ns#"
   xmlns:rdf="http://www.w3.org/1999/02/22-rdf-syntax-ns#"
   xmlns:svg="http://www.w3.org/2000/svg"
   xmlns="http://www.w3.org/2000/svg"
   height="50.5"
   width="45"
   xml:space="preserve"
   viewBox="0 0 44.999999 50.499999"
   y="0px"
   x="0px"
   id="pg-cadcam"
   version="1.1"><metadata
   id="metadata10"><rdf:RDF><cc:Work
       rdf:about=""><dc:format>image/svg+xml</dc:format><dc:type
         rdf:resource="http://purl.org/dc/dcmitype/StillImage" /></cc:Work></rdf:RDF></metadata><defs
   id="defs8" />
<g
   transform="translate(-0.4,-0.6)"
   id="XMLID_209_" fill="#004480">
	<path
   d="M 41.1,29.5 H 28 l 0.2,0.9 c 0.1,0.5 0.2,0.9 0.2,1.4 0.1,3.5 -2.7,6.3 -6.1,6.4 -1.7,0 -3.3,-0.6 -4.5,-1.7 -1.2,-1.2 -1.9,-2.7 -1.9,-4.4 0,-0.6 0.1,-1.1 0.2,-1.7 l 0.2,-0.9 H 3.1 L 3,30.2 C 2.8,32 2.9,33.8 3.2,35.4 l 0.2,0.6 2.9,0.3 c 0.5,0.1 0.9,0.1 0.9,0.1 h 0.2 0.1 c 0.7,-0.2 1.5,0.3 1.9,1.2 0.1,0.3 0.2,0.7 0.2,1 0,0.6 -0.2,1 -0.6,1.3 L 8.9,40 6.5,43.2 6.8,43.6 c 1.2,1.6 2.7,3 4.4,4.2 l 0.5,0.3 3.1,-2.5 0.1,-0.1 c 0.1,-0.2 0.3,-0.4 0.5,-0.5 0.5,-0.2 1.1,-0.2 1.7,0 0.8,0.3 1.4,0.9 1.4,1.5 0,0.1 0,0.2 0,0.3 V 47 l 0.6,3.9 0.7,0.1 c 0.1,0 0.2,0 0.2,0 0.8,0.1 1.5,0.1 2.3,0.1 1.2,0 2.3,-0.1 3.4,-0.3 l 0.6,-0.1 0.4,-4 v -0.2 c 0,-0.1 -0.1,-0.2 -0.1,-0.3 0,-0.6 0.5,-1.3 1.3,-1.6 0.9,-0.4 1.9,-0.2 2.2,0.4 l 0.1,0.1 3.2,2.4 0.4,-0.3 c 1.6,-1.2 3,-2.7 4.2,-4.4 l 0.3,-0.5 -2.5,-3.1 -0.1,-0.1 c -0.2,-0.1 -0.4,-0.3 -0.5,-0.5 -0.1,-0.2 -0.1,-0.4 -0.1,-0.7 0,-0.3 0.1,-0.7 0.2,-1 0.2,-0.6 0.6,-1.1 1.1,-1.3 0.2,-0.1 0.5,-0.1 0.7,-0.1 h 0.2 l 3.9,-0.6 0.1,-0.9 c 0.2,-1.3 0.2,-2.7 0,-4 z m -1.4,4.4 -2.5,0.4 c -0.5,-0.1 -1.1,0 -1.6,0.2 -0.8,0.4 -1.5,1.1 -1.9,2.1 -0.2,0.5 -0.3,1 -0.3,1.6 0,0.5 0.1,0.9 0.3,1.3 0.2,0.5 0.6,0.9 1,1.2 l 1.6,2 c -0.9,1.2 -1.9,2.3 -3.1,3.2 l -2,-1.5 c -0.8,-1.2 -2.5,-1.5 -4.1,-0.8 -1.4,0.6 -2.2,1.8 -2.2,3 0,0.2 0,0.3 0.1,0.5 l -0.3,2.5 c -1.5,0.2 -3,0.3 -4.5,0.1 l -0.4,-2.5 c 0,-0.2 0.1,-0.4 0.1,-0.5 0,-1.2 -0.9,-2.4 -2.3,-2.9 -1,-0.4 -2,-0.4 -2.8,0 -0.5,0.2 -0.9,0.6 -1.2,1 l -2,1.6 C 10.4,45.5 9.3,44.5 8.4,43.3 l 1.5,-2 c 0.8,-0.5 1.2,-1.4 1.2,-2.5 0,-0.5 -0.1,-1 -0.4,-1.5 -0.7,-1.6 -2.2,-2.4 -3.6,-2.1 -0.2,0 -0.4,0 -0.8,-0.1 L 4.5,34.9 C 4.3,33.7 4.3,32.5 4.3,31.3 h 10 c 0,0.4 -0.1,0.8 -0.1,1.1 0,2.1 0.9,4 2.4,5.4 1.5,1.4 3.4,2.2 5.5,2.2 4.3,-0.1 7.7,-3.7 7.6,-7.9 0,-0.3 0,-0.5 -0.1,-0.8 h 9.9 c 0.3,0.7 0.3,1.6 0.2,2.6 z"
   class="st0"
   id="XMLID_270_" fill="#004480"/>
	<path
   d="M 41.8,22.5 C 41.3,9.7 31.1,5.7 28.5,4.8 V 0.6 H 23.6 22.1 17.2 V 4.9 C 14.6,5.7 4.4,9.7 3.9,22.5 H 0.4 v 5.7 h 23.2 2.9 18.9 v -5.7 z m 2,4.2 H 26.4 23.5 1.9 V 24 H 5.4 V 23.3 C 5.5,9.3 17.6,6.3 18.1,6.2 L 18.7,6 V 2.1 h 3.4 v 6 h 1.5 v -6 H 27 V 6 l 0.6,0.1 c 0.1,0 12.6,3.1 12.7,17.1 v 0.7 h 3.5 z"
   class="st0"
   id="XMLID_273_" fill="#004480"/>
</g>
</svg>