<?xml version="1.0" encoding="UTF-8" standalone="no"?>
<svg
   xmlns:dc="http://purl.org/dc/elements/1.1/"
   xmlns:cc="http://creativecommons.org/ns#"
   xmlns:rdf="http://www.w3.org/1999/02/22-rdf-syntax-ns#"
   xmlns:svg="http://www.w3.org/2000/svg"
   xmlns="http://www.w3.org/2000/svg"
   height="45.700001"
   width="45.700001"
   xml:space="preserve"
   viewBox="0 0 45.7 45.700002"
   y="0px"
   x="0px"
   id="pg-comm"
   version="1.1"><metadata
   id="metadata12"><rdf:RDF><cc:Work
       rdf:about=""><dc:format>image/svg+xml</dc:format><dc:type
         rdf:resource="http://purl.org/dc/dcmitype/StillImage" /></cc:Work></rdf:RDF></metadata><defs
   id="defs10" />
<g
   transform="translate(0,-0.5)"
   id="XMLID_199_">
	<path
   d="m 31.6,25.4 c 0,6 -4.9,10.9 -10.9,10.9 -6,0 -10.9,-4.9 -10.9,-10.9 0,-6 4.9,-10.9 10.9,-10.9 h 0.8 V 4.6 H 20.7 C 9.3,4.6 0,13.9 0,25.4 c 0,11.4 9.3,20.8 20.8,20.8 11.4,0 20.8,-9.3 20.8,-20.8 v -0.8 h -9.9 v 0.8 z M 40,26.1 C 39.6,36.4 31.1,44.6 20.8,44.6 10.1,44.6 1.5,36 1.5,25.4 1.5,15 9.7,6.5 20,6.1 V 13 c -6.5,0.4 -11.6,5.8 -11.6,12.3 0,6.8 5.5,12.4 12.4,12.4 6.6,0 11.9,-5.1 12.3,-11.6 z"
   class="st0"
   id="XMLID_231_" fill="#f82249"/>
	<path
   d="m 24.5,4.6 v 1.5 c 8.6,0 15.5,7 15.5,15.5 h 1.5 c 0,-9.3 -7.6,-17 -17,-17 z"
   class="st0"
   id="XMLID_232_" fill="#f82249"/>
	<path
   d="M 24.5,0.5 V 2 c 10.9,0 19.7,8.8 19.7,19.7 h 1.5 C 45.7,10 36.2,0.5 24.5,0.5 Z"
   class="st0"
   id="XMLID_233_" fill="#f82249"/>
	<path
   d="m 35.4,21.7 h 1.5 C 36.9,14.8 31.3,9.3 24.5,9.3 v 1.5 c 6,-0.1 10.9,4.8 10.9,10.9 z"
   class="st0"
   id="XMLID_234_" fill="#f82249"/>
</g>
</svg>
