<?xml version="1.0" encoding="UTF-8" standalone="no"?>
<svg
   xmlns:dc="http://purl.org/dc/elements/1.1/"
   xmlns:cc="http://creativecommons.org/ns#"
   xmlns:rdf="http://www.w3.org/1999/02/22-rdf-syntax-ns#"
   xmlns:svg="http://www.w3.org/2000/svg"
   xmlns="http://www.w3.org/2000/svg"
   height="47"
   width="47.000702"
   xml:space="preserve"
   viewBox="0 0 47.000703 46.999999"
   y="0px"
   x="0px"
   id="pg-embed"
   version="1.1"><metadata
   id="metadata8"><rdf:RDF><cc:Work
       rdf:about=""><dc:format>image/svg+xml</dc:format><dc:type
         rdf:resource="http://purl.org/dc/dcmitype/StillImage" /></cc:Work></rdf:RDF></metadata><defs
   id="defs6" />
<path
   d="M 23.5,0 C 10.5,0 0,10.6 0,23.5 0,36.5 10.6,47 23.5,47 36.4,47 47,36.4 47,23.5 47.1,10.6 36.5,0 23.5,0 Z m 0,45.6 C 15,45.6 7.6,40.7 3.9,33.6 h 19.3 c 0.4,2.2 2.3,3.9 4.6,3.9 2.6,0 4.7,-2.1 4.7,-4.7 0,-2.6 -2.1,-4.7 -4.7,-4.7 -2.3,0 -4.3,1.7 -4.6,3.9 H 3.5 v 0.7 c -1.3,-2.8 -2,-5.9 -2,-9.2 0,-3.4 0.8,-6.7 2.2,-9.6 h 19.2 c 0.1,2.5 2.2,4.4 4.7,4.4 2.6,0 4.7,-2.1 4.7,-4.7 0,-2.6 -2.1,-4.7 -4.7,-4.7 -2.2,0 -4,1.5 -4.5,3.5 H 4.5 c 3.8,-6.6 10.9,-11 19.1,-11 11.9,0 21.6,9.5 22,21.3 H 20 c -0.4,-2.2 -2.3,-3.9 -4.6,-3.9 -2.6,0 -4.7,2.1 -4.7,4.7 0,2.6 2.1,4.7 4.7,4.7 2.3,0 4.3,-1.7 4.6,-3.9 H 45.6 C 45.1,36.1 35.4,45.6 23.5,45.6 Z m 1.1,-12.7 c 0,-1.8 1.4,-3.2 3.2,-3.2 1.8,0 3.2,1.4 3.2,3.2 0,1.8 -1.4,3.2 -3.2,3.2 -1.8,0 -3.2,-1.4 -3.2,-3.2 z M 24.3,13.7 c 0,-1.8 1.4,-3.2 3.2,-3.2 1.8,0 3.2,1.4 3.2,3.2 0,1.8 -1.4,3.2 -3.2,3.2 -1.8,0 -3.2,-1.4 -3.2,-3.2 z m -5.8,9.9 c 0,1.8 -1.4,3.2 -3.2,3.2 -1.8,0 -3.2,-1.4 -3.2,-3.2 0,-1.8 1.4,-3.2 3.2,-3.2 1.8,0 3.2,1.4 3.2,3.2 z"
   class="st0"
   id="XMLID_293_" fill="#f82249"/>
</svg>
