<?xml version="1.0" encoding="UTF-8" standalone="no"?>
<svg
   xmlns:dc="http://purl.org/dc/elements/1.1/"
   xmlns:cc="http://creativecommons.org/ns#"
   xmlns:rdf="http://www.w3.org/1999/02/22-rdf-syntax-ns#"
   xmlns:svg="http://www.w3.org/2000/svg"
   xmlns="http://www.w3.org/2000/svg"
   height="41.200001"
   width="41.015316"
   xml:space="preserve"
   viewBox="0 0 41.015317 41.199999"
   y="0px"
   x="0px"
   id="ug-me"
   version="1.1"><metadata
   id="metadata10"><rdf:RDF><cc:Work
       rdf:about=""><dc:format>image/svg+xml</dc:format><dc:type
         rdf:resource="http://purl.org/dc/dcmitype/StillImage" /></cc:Work></rdf:RDF></metadata><defs
   id="defs8" />
<g
   transform="translate(-3.5,-0.6)"
   id="XMLID_1_">
	<path
   d="m 22.9,13 c -2.2,0.3 -4.1,1.4 -5.4,3.2 -1.3,1.8 -1.9,3.9 -1.6,6.1 0.3,2.2 1.4,4.1 3.2,5.4 1.4,1.1 3.2,1.7 5,1.7 0.4,0 0.8,0 1.2,-0.1 4.5,-0.6 7.7,-4.8 7,-9.3 -0.7,-4.5 -4.9,-7.6 -9.4,-7 z M 25,27.9 c -1.8,0.3 -3.6,-0.2 -5,-1.3 -1.4,-1.1 -2.4,-2.7 -2.6,-4.5 v 0 c -0.3,-1.8 0.2,-3.6 1.3,-5 1.1,-1.4 2.7,-2.4 4.5,-2.6 0.3,0 0.6,-0.1 0.9,-0.1 3.3,0 6.2,2.4 6.7,5.8 0.5,3.7 -2.1,7.2 -5.8,7.7 z"
   class="st0"
   id="XMLID_4_" fill="#004480"/>
	<path
   d="m 43.6,15.2 -0.2,-0.5 h -0.6 c -1.7,0 -3.4,0 -3.5,0 H 39.1 L 39,14.8 c -0.7,0.3 -1.7,-0.1 -2.2,-1.1 -0.2,-0.3 -0.3,-0.7 -0.4,-1 0,-0.3 0,-0.5 0,-0.8 0.1,-0.2 0.5,-0.7 0.8,-1.1 l 0.1,-0.2 c 0,0 0.6,-1.2 1.4,-2.7 L 39,7.4 38.8,7 C 37.3,5.4 35.6,4.1 33.6,3.1 l -0.5,-0.3 -2.9,3 V 6 C 29.9,6.7 28.9,7.1 27.8,6.8 27.1,6.6 26.6,6.2 26.3,5.8 26.2,5.6 26.1,5.5 26.1,5.3 c 0,-0.1 0,-0.2 0,-0.3 V 4.8 4.6 c 0,0 -0.1,-0.4 -0.3,-1 L 25,0.6 h -1 c -2,0 -4.1,0.3 -6,0.9 l -0.5,0.2 v 0.6 c 0,1.7 0,3.4 0,3.5 V 6 l 0.1,0.1 c 0.1,0.1 0.1,0.2 0.1,0.3 0.1,0.7 -0.4,1.5 -1.2,1.9 -1,0.6 -2,0.5 -2.5,-0.1 L 13.9,8.1 10.3,6 9.9,6.4 C 8.3,8 7,9.7 6,11.6 l -0.3,0.5 3,2.9 0.1,0.1 c 0.3,0.1 0.5,0.3 0.6,0.5 0.1,0.2 0.2,0.5 0.3,0.7 0,0.4 0,0.7 -0.1,1.1 -0.2,0.7 -0.6,1.2 -1,1.5 -0.3,0.2 -0.5,0.2 -0.8,0.2 H 7.6 7.4 C 7.3,19.1 5.7,19.6 4,20 l -0.5,0.1 v 1 c 0,2.1 0.3,4.1 0.9,6 l 0.2,0.5 H 8.8 9 c 0.7,-0.3 1.7,0.2 2.2,1.1 0.2,0.3 0.3,0.7 0.4,1 0.1,0.6 -0.1,1.2 -0.5,1.5 l -0.1,0.1 -0.1,0.1 c 0,0.1 -0.6,1.1 -1.3,2.3 L 8.9,35 9.3,35.4 c 1.5,1.6 3.3,2.9 5.2,3.9 l 0.5,0.3 0.4,-0.4 c 1.2,-1.2 2.4,-2.4 2.4,-2.5 l 0.1,-0.1 0.1,-0.1 c 0.1,-0.3 0.3,-0.5 0.5,-0.6 0.5,-0.3 1.1,-0.4 1.8,-0.2 0.9,0.2 1.6,0.9 1.7,1.5 0,0.1 0,0.2 0,0.3 v 0.2 0.2 c 0,0.1 0.5,1.7 0.9,3.4 l 0.1,0.5 h 1 c 2,0 4.1,-0.3 6,-0.9 l 0.5,-0.2 v -0.6 c 0,-1.7 0,-3.4 0,-3.5 v -0.2 l -0.1,-0.2 c 0,-0.1 -0.1,-0.2 -0.1,-0.3 -0.1,-0.7 0.4,-1.5 1.2,-1.9 1,-0.6 2,-0.5 2.5,0.1 l 0.1,0.1 0.1,0.1 c 0.1,0.1 1.5,0.9 3,1.7 l 0.5,0.3 0.4,-0.4 C 39.7,34.4 41,32.6 42,30.7 l 0.3,-0.5 -3,-3 -0.1,-0.1 c -0.3,-0.1 -0.5,-0.3 -0.6,-0.5 -0.1,-0.2 -0.2,-0.5 -0.3,-0.7 0,-0.3 0,-0.7 0.1,-1.1 0.2,-0.7 0.6,-1.2 1,-1.5 v 0 c 0.3,-0.2 0.5,-0.2 0.8,-0.2 h 0.2 0.2 c 0.1,0 1,-0.3 2.2,-0.6 L 44.5,22 v -1 c 0.1,-1.9 -0.3,-3.9 -0.9,-5.8 z m -1.2,6 c -0.9,0.3 -1.7,0.5 -2.1,0.6 -0.5,0 -1.1,0.1 -1.6,0.4 -0.8,0.5 -1.5,1.4 -1.7,2.4 -0.1,0.6 -0.2,1.1 -0.1,1.7 0.1,0.5 0.2,0.9 0.4,1.3 0.3,0.5 0.7,0.9 1.2,1.1 l 2,1.9 c -0.8,1.4 -1.8,2.7 -3,3.9 -1.1,-0.6 -2.1,-1.2 -2.4,-1.4 -1,-1.1 -2.8,-1.3 -4.4,-0.4 -1.3,0.8 -2.1,2.1 -1.9,3.5 0,0.2 0.1,0.4 0.2,0.5 0,0.4 0,1.5 0,2.8 -1.6,0.4 -3.2,0.7 -4.9,0.7 -0.3,-1.2 -0.6,-2.3 -0.7,-2.7 0,-0.2 0,-0.4 0,-0.6 -0.2,-1.3 -1.3,-2.4 -2.8,-2.8 -1.1,-0.3 -2.1,-0.1 -3,0.3 -0.5,0.3 -0.9,0.7 -1.1,1.2 -0.3,0.3 -1.1,1.1 -1.9,2 -1.4,-0.8 -2.7,-1.8 -3.9,-3 l 0.1,-0.2 c 0.6,-1 1.1,-1.9 1.2,-2.2 0.8,-0.6 1.1,-1.7 0.9,-2.8 C 13,29 12.8,28.5 12.5,28 11.6,26.4 9.9,25.7 8.5,26.2 H 5.7 C 5.3,24.6 5,23 5,21.3 6.2,21 7.3,20.7 7.7,20.6 c 0.6,0 1.1,-0.1 1.6,-0.4 0.8,-0.5 1.5,-1.4 1.7,-2.4 0.1,-0.6 0.2,-1.1 0.1,-1.7 C 11,15.6 10.9,15.2 10.7,14.8 10.4,14.3 10,13.9 9.5,13.7 l -2,-1.9 c 0.8,-1.4 1.8,-2.7 3,-3.9 l 2.4,1.4 c 1,1.1 2.8,1.3 4.4,0.4 1.3,-0.8 2.1,-2.1 1.9,-3.4 0,-0.2 -0.1,-0.4 -0.2,-0.6 0,-0.4 0,-1.5 0,-2.8 1.6,-0.4 3.2,-0.7 4.9,-0.7 l 0.5,1.9 c 0.1,0.4 0.2,0.7 0.2,0.8 0,0.2 0,0.4 0,0.6 0.1,0.4 0.2,0.7 0.4,1 0.5,0.8 1.4,1.5 2.4,1.7 1.8,0.5 3.5,-0.2 4.1,-1.6 l 1.9,-2 c 1.4,0.8 2.7,1.8 3.9,3 -0.6,1 -1,1.9 -1.1,2.2 -0.3,0.4 -1,1.1 -1.1,1.7 -0.1,0.4 -0.1,0.9 -0.1,1.3 0.1,0.5 0.3,1.1 0.6,1.6 0.9,1.6 2.6,2.3 4,1.8 0.4,0 1.5,0 2.8,0 0.4,1.6 0.7,3.2 0.7,4.9 z"
   class="st0"
   id="XMLID_64_" fill="#004480"/>
</g>
</svg>